Coordinates
version=1
nRows=17
nColumns=40
inDegrees=yes

Units are S.I. units (second, meters, Newtons, ...)
If the header above contains a line with 'inDegrees', this indicates whether rotational values are in degrees (yes) or radians (no).

endheader
time	pelvis_tilt	pelvis_list	pelvis_rotation	pelvis_tx	pelvis_ty	pelvis_tz	hip_flexion_r	hip_adduction_r	hip_rotation_r	knee_angle_r	knee_angle_r_beta	ankle_angle_r	subtalar_angle_r	mtp_angle_r	hip_flexion_l	hip_adduction_l	hip_rotation_l	knee_angle_l	knee_angle_l_beta	ankle_angle_l	subtalar_angle_l	mtp_angle_l	lumbar_extension	lumbar_bending	lumbar_rotation	arm_flex_r	arm_add_r	arm_rot_r	elbow_flex_r	pro_sup_r	wrist_flex_r	wrist_dev_r	arm_flex_l	arm_add_l	arm_rot_l	elbow_flex_l	pro_sup_l	wrist_flex_l	wrist_dev_l
      0.76000000	     -4.15951313	     -6.70411233	     89.90178619	      0.18902125	      0.87436794	      1.11706921	     34.21383525	     -4.41688379	     -1.96184455	      0.87731450	      0.01531203	      2.57606471	     -0.00000000	     -0.00000000	    -18.40687303	      6.73980682	      6.51878547	     -0.31561567	     -0.00550853	     15.97760252	     -0.00000000	     -0.00000000	     -4.16696696	     -5.10744596	     -8.39317475	      0.00000000	      0.00000000	      0.00000000	      0.00000000	      0.00000000	      0.00000000	     -0.00000000	      0.00000000	     -0.00000000	      0.00000000	      0.00000000	      0.00000000	     -0.00000000	      0.00000000
      0.77000000	     -3.98112593	     -6.67572542	     89.90319313	      0.18983286	      0.87252557	      1.10117490	     34.18073500	     -4.01143911	     -1.12949076	      1.88468280	      0.03289392	      1.16441296	      0.00000000	      0.00000000	    -18.62955097	      6.48671473	      6.28843404	      1.31327013	      0.02292089	     15.86772159	      0.00000000	      0.00000000	     -3.95297056	     -4.73342625	     -8.19719408	      0.00000000	      0.00000000	      0.00000000	      0.00000000	      0.00000000	      0.00000000	      0.00000000	      0.00000000	      0.00000000	      0.00000000	      0.00000000	      0.00000000	      0.00000000	      0.00000000
      0.78000000	     -3.72088139	     -6.62535513	     89.90396598	      0.19079698	      0.87111005	      1.08516272	     34.15266498	     -3.53676158	     -0.31501922	      3.09816020	      0.05407310	     -0.70542839	      0.00000000	      0.00000000	    -18.68022815	      6.12639850	      5.88833459	      3.23115088	      0.05639422	     15.53631132	      0.00000000	      0.00000000	     -3.76657461	     -4.29909588	     -7.99826757	      0.00000000	      0.00000000	      0.00000000	      0.00000000	      0.00000000	      0.00000000	      0.00000000	      0.00000000	      0.00000000	      0.00000000	      0.00000000	      0.00000000	      0.00000000	      0.00000000
      0.79000000	     -3.45507481	     -6.51384798	     89.90368563	      0.19174104	      0.87020649	      1.06906442	     34.12233044	     -3.10092422	      0.38961761	      4.55756132	      0.07954445	     -2.70951777	      0.00000000	      0.00000000	    -18.58183205	      5.74782715	      5.34948086	      5.45275829	      0.09516859	     14.84736011	      0.00000000	      0.00000000	     -3.64347125	     -3.82694758	     -7.79806187	      0.00000000	      0.00000000	      0.00000000	      0.00000000	      0.00000000	      0.00000000	      0.00000000	      0.00000000	      0.00000000	      0.00000000	      0.00000000	      0.00000000	      0.00000000	      0.00000000
      0.80000000	     -3.12695594	     -6.36235299	     89.90244487	      0.19277110	      0.86980676	      1.05288016	     34.09195214	     -2.62653843	      0.96405312	      6.22322124	      0.10861570	     -4.71337905	      0.00000000	      0.00000000	    -18.30549548	      5.26447626	      4.63452807	      7.96435902	      0.13900429	     13.82626355	      0.00000000	     -0.00000000	     -3.54920874	     -3.29324264	     -7.59433895	      0.00000000	      0.00000000	      0.00000000	      0.00000000	      0.00000000	     -0.00000000	     -0.00000000	      0.00000000	      0.00000000	      0.00000000	      0.00000000	      0.00000000	     -0.00000000	     -0.00000000
      0.81000000	     -2.80629127	     -6.15551474	     89.90072114	      0.19384033	      0.86992603	      1.03668380	     34.06835630	     -2.19228246	      1.34014897	      8.13566007	      0.14199406	     -6.37714840	      0.00000000	      0.00000000	    -17.84148164	      4.73841380	      3.74014645	     10.78973693	      0.18831643	     12.36731111	      0.00000000	      0.00000000	     -3.52880287	     -2.77187282	     -7.40241316	      0.00000000	      0.00000000	      0.00000000	      0.00000000	      0.00000000	      0.00000000	      0.00000000	      0.00000000	      0.00000000	      0.00000000	      0.00000000	      0.00000000	      0.00000000	      0.00000000
      0.82000000	     -2.47315519	     -5.89391046	     89.89792221	      0.19496483	      0.87055867	      1.02048275	     34.01640567	     -1.77216098	      1.54887102	     10.24800239	      0.17886138	     -7.51742971	      0.00000000	      0.00000000	    -17.19263301	      4.12626481	      2.66086764	     13.90764419	      0.24273418	     10.46227632	      0.00000000	      0.00000000	     -3.57387464	     -2.24028845	     -7.21474887	      0.00000000	      0.00000000	      0.00000000	      0.00000000	      0.00000000	      0.00000000	      0.00000000	      0.00000000	      0.00000000	      0.00000000	      0.00000000	      0.00000000	      0.00000000	      0.00000000
      0.83000000	     -2.16475653	     -5.51242646	     89.89427055	      0.19613369	      0.87177256	      1.00431382	     33.83417136	     -1.40315097	      1.57268701	     12.50331003	      0.21822393	     -8.00241129	      0.00000000	      0.00000000	    -16.45556949	      3.46340810	      1.53884056	     17.26457853	      0.30132374	      8.14126518	      0.00000000	      0.00000000	     -3.76823200	     -1.75399798	     -7.07122829	      0.00000000	      0.00000000	      0.00000000	      0.00000000	      0.00000000	      0.00000000	      0.00000000	      0.00000000	      0.00000000	      0.00000000	      0.00000000	      0.00000000	      0.00000000	      0.00000000
      0.84000000	     -1.81793961	     -5.25304212	     89.88954896	      0.19741670	      0.87319413	      0.98831485	     33.72210116	     -0.99224873	      1.58361977	     14.78128274	      0.25798205	     -7.71654727	      0.00000000	      0.00000000	    -15.31453135	      2.64730325	      0.26311000	     20.94242280	      0.36551423	      5.30858893	      0.00000000	      0.00000000	     -3.82815953	     -1.23670125	     -6.87227328	      0.00000000	      0.00000000	      0.00000000	      0.00000000	      0.00000000	      0.00000000	      0.00000000	      0.00000000	      0.00000000	      0.00000000	      0.00000000	      0.00000000	      0.00000000	      0.00000000
      0.85000000	     -1.45627740	     -4.86904670	     89.88477401	      0.19876246	      0.87513562	      0.97239347	     33.36918726	     -0.58468979	      1.40891314	     16.98045712	      0.29636489	     -6.92861272	      0.00000000	      0.00000000	    -14.14205416	      1.73065810	     -0.95590061	     24.76604835	      0.43224909	      2.19068415	      0.00000000	      0.00000000	     -4.04716837	     -0.71771969	     -6.73004057	      0.00000000	      0.00000000	      0.00000000	      0.00000000	      0.00000000	      0.00000000	      0.00000000	      0.00000000	      0.00000000	      0.00000000	      0.00000000	      0.00000000	      0.00000000	      0.00000000
      0.86000000	     -1.12635105	     -4.55947717	     89.87815161	      0.20019502	      0.87731519	      0.95676715	     32.92006104	     -0.17596883	      1.38543022	     18.94434030	      0.33064111	     -5.49462059	      0.00000000	      0.00000000	    -12.68860014	      0.76260272	     -2.07686822	     28.77839523	      0.50227775	     -1.21547239	      0.00000000	      0.00000000	     -4.20191372	     -0.26555609	     -6.53850995	      0.00000000	      0.00000000	      0.00000000	      0.00000000	      0.00000000	      0.00000000	      0.00000000	      0.00000000	      0.00000000	      0.00000000	      0.00000000	      0.00000000	      0.00000000	      0.00000000
      0.87000000	     -0.74109043	     -4.20866601	     89.87201936	      0.20167071	      0.87984671	      0.94135655	     32.24458313	      0.28302574	      1.19249533	     20.61839203	      0.35985883	     -3.94570542	      0.00000000	      0.00000000	    -11.15664282	     -0.32952377	     -3.09656422	     32.86384794	      0.57358235	     -4.58438540	     -0.00000000	     -0.00000000	     -4.42792444	      0.24094628	     -6.41193143	      0.00000000	     -0.00000000	      0.00000000	      0.00000000	      0.00000000	      0.00000000	     -0.00000000	      0.00000000	      0.00000000	     -0.00000000	      0.00000000	      0.00000000	     -0.00000000	      0.00000000
      0.88000000	     -0.38720050	     -3.88055387	     89.86474236	      0.20316828	      0.88264533	      0.92629366	     31.36310841	      0.73272824	      1.07411066	     21.86693237	      0.38164997	     -2.27502784	     -0.00000000	     -0.00000000	     -9.47471220	     -1.42470273	     -3.93802956	     36.98489579	      0.64550821	     -7.76209059	     -0.00000000	     -0.00000000	     -4.66889029	      0.69438884	     -6.27526152	     -0.00000000	     -0.00000000	      0.00000000	      0.00000000	      0.00000000	     -0.00000000	     -0.00000000	      0.00000000	      0.00000000	      0.00000000	      0.00000000	      0.00000000	      0.00000000	      0.00000000
      0.89000000	      0.02662622	     -3.68746239	     89.85808275	      0.20478168	      0.88545959	      0.91154245	     30.38801639	      1.28459478	      1.02998770	     22.67393513	      0.39573482	     -0.44502362	      0.00000000	      0.00000000	     -7.54208632	     -2.61518888	     -4.62966380	     41.13364161	      0.71791748	    -10.72282267	      0.00000000	      0.00000000	     -4.77246904	      1.17195389	     -6.07931983	      0.00000000	      0.00000000	      0.00000000	      0.00000000	      0.00000000	      0.00000000	      0.00000000	      0.00000000	      0.00000000	      0.00000000	      0.00000000	      0.00000000	      0.00000000	      0.00000000
      0.90000000	      0.39378452	     -3.54461326	     89.84907688	      0.20635245	      0.88844065	      0.89715593	     29.26119619	      1.80219065	      1.01918986	     23.03839495	      0.40209585	      1.18976000	     -0.00000000	      0.00000000	     -5.49021733	     -3.74453396	     -5.14205289	     45.18007014	      0.78854098	    -13.05194228	     -0.00000000	      0.00000000	     -4.84796256	      1.59021042	     -5.86903981	      0.00000000	      0.00000000	     -0.00000000	      0.00000000	      0.00000000	      0.00000000	      0.00000000	      0.00000000	      0.00000000	      0.00000000	      0.00000000	      0.00000000	      0.00000000	      0.00000000
      0.91000000	      0.72679312	     -3.46828922	     89.84021338	      0.20789007	      0.89148479	      0.88313707	     28.03492123	      2.29661166	      1.06161291	     23.01958304	      0.40176752	      2.57285945	      0.00000000	      0.00000000	     -3.30430535	     -4.80734794	     -5.49380537	     49.11199954	      0.85716609	    -14.65602512	      0.00000000	      0.00000000	     -4.89118008	      1.95152615	     -5.64046828	      0.00000000	      0.00000000	      0.00000000	      0.00000000	      0.00000000	      0.00000000	      0.00000000	      0.00000000	      0.00000000	      0.00000000	      0.00000000	      0.00000000	      0.00000000	      0.00000000
      0.92000000	      1.01060326	     -3.41046386	     89.83079656	      0.20931033	      0.89465058	      0.86932337	     26.66838546	      2.73211061	      1.05986869	     22.64118853	      0.39516329	      3.70001553	      0.00000000	      0.00000000	     -1.10502713	     -5.76181129	     -5.71940025	     52.77501689	      0.92109781	    -15.56928742	      0.00000000	      0.00000000	     -4.91461405	      2.26609852	     -5.47896687	      0.00000000	      0.00000000	      0.00000000	      0.00000000	      0.00000000	      0.00000000	      0.00000000	      0.00000000	      0.00000000	      0.00000000	      0.00000000	      0.00000000	      0.00000000	      0.00000000
